<svg xmlns="http://www.w3.org/2000/svg" viewBox="0 0 194.3 125.7"><defs><style>.a{fill:#fdaf40;}.b{fill:#12a89d;}.c{fill:#e52648;}</style></defs><path class="a" d="M250.91,184.63a.91.91,0,0,1-1.82,0v-38l-32.86,5.43V266.59l67.54-4V140.9l-32.86,5.43ZM250,230.34a9.74,9.74,0,0,1-9.74-9.74h19.48A9.74,9.74,0,0,1,250,230.34Zm8.56-31.26,13.08,18.57a.91.91,0,0,1-.74,1.43H229.1a.91.91,0,0,1-.74-1.43l13.08-18.57a.91.91,0,0,1,.74-.39h15.64A.89.89,0,0,1,258.56,199.08Zm-4.14-2.35a.9.9,0,0,1-.9.91h-7a.9.9,0,0,1-.9-.91v-5.36a4.42,4.42,0,1,1,8.84,0Z" transform="translate(-152.85 -140.9)"/><path class="a" d="M250,188.77a2.61,2.61,0,0,0-2.61,2.6v4.45h5.22v-4.45A2.61,2.61,0,0,0,250,188.77Z" transform="translate(-152.85 -140.9)"/><polygon class="a" points="116.3 76.37 104.5 59.61 89.8 59.61 78 76.37 116.3 76.37"/><path class="b" d="M172.51,247a28.35,28.35,0,0,0,20.36-27.16v-3.25a6.52,6.52,0,0,0-13,0v3.25a15.29,15.29,0,0,1-15.27,15.27H152.85v13h11.71A28.26,28.26,0,0,0,172.51,247Zm13.84-33.57a3.16,3.16,0,1,1-3.16,3.16A3.15,3.15,0,0,1,186.35,213.39Z" transform="translate(-152.85 -140.9)"/><path class="b" d="M152.85,189.35h20.52a10,10,0,0,1,9.95,10v4.61a.91.91,0,0,1-1.82,0V199.3a8.14,8.14,0,0,0-8.13-8.13H152.85v42.09h11.71A13.48,13.48,0,0,0,178,219.8v-3.25a8.33,8.33,0,1,1,16.66,0v3.25a30,30,0,0,1-14.41,25.69l-.55.31-.68,9.37a.59.59,0,0,1-.59.55h-2.38c-.31,0-1.89-4.12-3-7l-.06,0a30,30,0,0,1-8.46,1.22H152.85v8.62l56.37,4.08V167.31l-56.37,8.44Zm10.57,31.75a1.56,1.56,0,1,1,1.55-1.55A1.56,1.56,0,0,1,163.42,221.1Zm0-12.31a1.56,1.56,0,1,1,1.55-1.56A1.56,1.56,0,0,1,163.42,208.79Z" transform="translate(-152.85 -140.9)"/><path class="c" d="M343.15,232.26c-.22,5.25-.46,10.5-.66,14.43-.37,7.42-.37,7.42-1.35,7.42h-2.38a1.51,1.51,0,0,1-1.5-1.39l-.84-40.41H325.24c-.46,2.77-1.88,11.41-3.33,20.06-.89,5.25-1.78,10.5-2.47,14.43-1.28,7.31-1.28,7.31-2.16,7.31H314.9a1.51,1.51,0,0,1-1.5-1.39.86.86,0,0,1,0-.16l4.32-40.86v-4.36h-7.45a5.1,5.1,0,0,1,0-10.19h36.87V174.66L290.24,166v93.13l56.91,3.54V212.31H344C343.86,215.2,343.52,223.73,343.15,232.26Z" transform="translate(-152.85 -140.9)"/><path class="c" d="M315.26,252.29h1.32c.82-3.84,4.36-25,6.82-40h-3.91Z" transform="translate(-152.85 -140.9)"/><path class="c" d="M310.28,199a3.28,3.28,0,0,0,0,6.55h36.87V199H310.28Z" transform="translate(-152.85 -140.9)"/><path class="c" d="M339.07,252.29h1.28c.34-4.12,1.23-25.16,1.81-40h-3.92Z" transform="translate(-152.85 -140.9)"/></svg>